<?xml version="1.0" standalone="no"?>
<!DOCTYPE svg PUBLIC "-//W3C//DTD SVG 20010904//EN"
 "http://www.w3.org/TR/2001/REC-SVG-20010904/DTD/svg10.dtd">
<svg version="1.0" xmlns="http://www.w3.org/2000/svg"
 width="254.000000pt" height="254.000000pt" viewBox="0 0 254.000000 254.000000"
 preserveAspectRatio="xMidYMid meet">
<metadata>
Created by potrace 1.11, written by Peter Selinger 2001-2013
</metadata>
<g transform="translate(0.000000,254.000000) scale(0.100000,-0.100000)"
fill="#000000" stroke="none">
<path d="M526 2113 c-3 -3 -6 -294 -6 -645 0 -560 2 -638 15 -638 13 0 15 26
15 174 l0 174 117 96 c64 53 120 96 124 96 4 0 103 -120 220 -267 165 -209
217 -269 237 -271 20 -3 24 -1 15 10 -445 559 -446 561 -425 577 11 9 104 86
207 171 142 118 181 156 165 158 -24 4 0 22 -363 -280 -157 -131 -288 -238
-291 -238 -3 0 -6 198 -6 439 0 242 -4 442 -9 445 -4 3 -11 3 -15 -1z"/>
<path d="M1603 1751 c-99 -34 -175 -107 -222 -212 l-20 -44 0 128 c-1 106 -3
127 -16 127 -13 0 -15 -76 -15 -620 0 -544 2 -620 15 -620 13 0 15 39 15 288
l1 287 29 -62 c35 -77 104 -146 178 -181 51 -24 69 -27 162 -27 126 0 172 17
254 95 88 83 146 236 146 385 0 79 -26 200 -57 265 -38 79 -124 161 -196 188
-74 28 -198 29 -274 3z m283 -44 c169 -86 249 -325 189 -569 -31 -126 -102
-219 -205 -267 -47 -22 -68 -26 -142 -25 -77 1 -95 5 -152 33 -112 55 -184
163 -207 311 -38 250 70 474 260 535 70 23 194 14 257 -18z"/>
</g>
</svg>
